<mxfile host="app.diagrams.net" modified="2023-08-21T05:11:12.069Z" agent="Mozilla/5.0 (Macintosh; Intel Mac OS X 10_15_7) AppleWebKit/537.36 (KHTML, like Gecko) Chrome/115.0.0.0 Safari/537.36" version="21.6.8" etag="CALx81vJcx7053Mf9TBF" type="github">
  <diagram name="Page-1" id="4APqr8Mwq1Hm_6hZMzRj">
    <mxGraphModel>
      <root>
        <mxCell id="0" />
        <mxCell id="1" parent="0" />
      </root>
    </mxGraphModel>
  </diagram>
</mxfile>
